<svg id="Layer_1" data-name="Layer 1" xmlns="http://www.w3.org/2000/svg" viewBox="0 0 2500 1500"><defs><style>.cls-1{fill:#fff;}.cls-2{fill:none;}.cls-2,.cls-22{stroke:#000;stroke-miterlimit:10;}.cls-3{fill-rule:evenodd;}.cls-4{font-size:16.93px;}.cls-23,.cls-31,.cls-36,.cls-4{font-family:MyriadPro-Regular, Myriad Pro;}.cls-5{letter-spacing:0.02em;}.cls-6{letter-spacing:0em;}.cls-7{letter-spacing:0.02em;}.cls-8{letter-spacing:0em;}.cls-9{letter-spacing:-0.02em;}.cls-10{letter-spacing:-0.01em;}.cls-11{letter-spacing:0.02em;}.cls-12{letter-spacing:0.02em;}.cls-13{letter-spacing:-0.01em;}.cls-14{letter-spacing:0em;}.cls-15{letter-spacing:-0.01em;}.cls-16{letter-spacing:0em;}.cls-17{letter-spacing:0.02em;}.cls-18{letter-spacing:-0.03em;}.cls-19{letter-spacing:-0.01em;}.cls-20{letter-spacing:-0.01em;}.cls-21{letter-spacing:-0.01em;}.cls-23{font-size:16.79px;}.cls-24{letter-spacing:0.02em;}.cls-25{letter-spacing:0em;}.cls-26{letter-spacing:0em;}.cls-27{letter-spacing:0em;}.cls-28{letter-spacing:0em;}.cls-29{letter-spacing:-0.01em;}.cls-30{letter-spacing:0em;}.cls-31{font-size:20px;}.cls-32{letter-spacing:0em;}.cls-33{letter-spacing:0em;}.cls-34{letter-spacing:0em;}.cls-35{letter-spacing:0em;}.cls-36{font-size:19.15px;}.cls-37{letter-spacing:0em;}.cls-38{letter-spacing:-0.01em;}.cls-39{letter-spacing:-0.01em;}.cls-40{letter-spacing:0em;}.cls-41{letter-spacing:-0.01em;}.cls-42{letter-spacing:0em;}.cls-43{letter-spacing:0.02em;}.cls-44{letter-spacing:0em;}.cls-45{letter-spacing:0.01em;}.cls-46{letter-spacing:-0.01em;}.cls-47{letter-spacing:0em;}.cls-48{letter-spacing:0.01em;}.cls-49{letter-spacing:0.02em;}.cls-50{letter-spacing:0em;}.cls-51{letter-spacing:-0.05em;}.cls-52{letter-spacing:0.03em;}.cls-53{letter-spacing:-0.01em;}.cls-54{letter-spacing:0em;}.cls-55{letter-spacing:0em;}.cls-56{letter-spacing:0.01em;}.cls-57{letter-spacing:-0.01em;}.cls-58{letter-spacing:-0.01em;}.cls-59{letter-spacing:0.02em;}.cls-60{letter-spacing:0em;}.cls-61{letter-spacing:-0.03em;}.cls-62{letter-spacing:0em;}.cls-63{letter-spacing:0.03em;}.cls-64{letter-spacing:-0.01em;}.cls-65{letter-spacing:0em;}</style></defs><title>statemachinediagram</title><path d="M1166.13,47.89a12.2,12.2,0,1,1,12.19-12.19A12.21,12.21,0,0,1,1166.13,47.89Z"/><path class="cls-1" d="M1166.13,24a11.7,11.7,0,1,1-11.7,11.7,11.71,11.71,0,0,1,11.7-11.7m0-1a12.7,12.7,0,1,0,12.69,12.7A12.7,12.7,0,0,0,1166.13,23Z"/><line class="cls-2" x1="1165.57" y1="73.54" x2="1165.61" y2="43.16"/><polygon class="cls-3" points="1165.83 73.23 1172.05 73.24 1168.94 78 1165.83 82.77 1162.72 78 1159.61 73.22 1165.83 73.23"/><rect class="cls-1" x="1071.84" y="83.59" width="193.66" height="90.41" rx="28.98"/><path d="M1236.52,84.09A28.52,28.52,0,0,1,1265,112.57V145a28.52,28.52,0,0,1-28.48,28.48h-135.7A28.51,28.51,0,0,1,1072.34,145V112.57a28.51,28.51,0,0,1,28.48-28.48h135.7m0-1h-135.7a29.48,29.48,0,0,0-29.48,29.48V145a29.48,29.48,0,0,0,29.48,29.48h135.7A29.48,29.48,0,0,0,1266,145V112.57a29.48,29.48,0,0,0-29.48-29.48Z"/><line class="cls-2" x1="1072.18" y1="108.06" x2="1265.58" y2="108.06"/><text class="cls-4" transform="translate(1128.42 101.68)">sta<tspan class="cls-5" x="20.46" y="0">r</tspan><tspan class="cls-6" x="26.41" y="0">tS</tspan><tspan class="cls-7" x="40.35" y="0">k</tspan><tspan x="48.6" y="0">ae</tspan><tspan class="cls-8" x="65.24" y="0">r</tspan><tspan x="70.84" y="0">m</tspan></text><text class="cls-4" transform="translate(1103.96 143.84)"><tspan class="cls-9">V</tspan><tspan x="9.17" y="0">is sta</tspan><tspan class="cls-5" x="43.89" y="0">r</tspan><tspan class="cls-6" x="49.83" y="0">ts</tspan><tspan class="cls-7" x="62.14" y="0">k</tspan><tspan class="cls-6" x="70.38" y="0">æ</tspan><tspan class="cls-8" x="83.47" y="0">r</tspan><tspan x="89.07" y="0">m</tspan></text><rect class="cls-1" x="1069.57" y="189.72" width="193.67" height="90.41" rx="28.98"/><path d="M1234.25,190.22a28.51,28.51,0,0,1,28.48,28.48v32.45a28.51,28.51,0,0,1-28.48,28.48h-135.7a28.52,28.52,0,0,1-28.48-28.48V218.7a28.52,28.52,0,0,1,28.48-28.48h135.7m0-1h-135.7a29.48,29.48,0,0,0-29.48,29.48v32.45a29.48,29.48,0,0,0,29.48,29.48h135.7a29.48,29.48,0,0,0,29.48-29.48V218.7a29.48,29.48,0,0,0-29.48-29.48Z"/><line class="cls-2" x1="1069.92" y1="214.19" x2="1263.31" y2="214.19"/><text class="cls-4" transform="translate(1126.15 207.81)"><tspan class="cls-10">r</tspan><tspan x="5.37" y="0">egler</tspan></text><text class="cls-4" transform="translate(1101.7 243.2)">Fje<tspan class="cls-8" x="20.84" y="0">r</tspan><tspan x="26.44" y="0">ner sta</tspan><tspan class="cls-11" x="73.9" y="0">r</tspan><tspan x="79.84" y="0">ts</tspan><tspan class="cls-12" x="92.15" y="0">k</tspan><tspan x="100.39" y="0">æ</tspan><tspan class="cls-8" x="113.48" y="0">r</tspan><tspan x="119.08" y="0">m</tspan><tspan class="cls-9" x="0" y="20.31">V</tspan><tspan x="9.17" y="20.31">iser </tspan><tspan class="cls-10" x="37.44" y="20.31">r</tspan><tspan x="42.81" y="20.31">egler</tspan></text><rect class="cls-1" x="1070.12" y="295.66" width="193.66" height="90.41" rx="28.98"/><path d="M1234.81,296.16a28.52,28.52,0,0,1,28.48,28.48v32.45a28.52,28.52,0,0,1-28.48,28.48H1099.1a28.52,28.52,0,0,1-28.48-28.48V324.64a28.52,28.52,0,0,1,28.48-28.48h135.71m0-1H1099.1a29.48,29.48,0,0,0-29.48,29.48v32.45a29.48,29.48,0,0,0,29.48,29.48h135.71a29.48,29.48,0,0,0,29.48-29.48V324.64a29.48,29.48,0,0,0-29.48-29.48Z"/><line class="cls-2" x1="1070.47" y1="320.13" x2="1263.86" y2="320.13"/><text class="cls-4" transform="translate(1126.7 313.75)">sta<tspan class="cls-5" x="20.46" y="0">r</tspan><tspan class="cls-6" x="26.41" y="0">t</tspan><tspan class="cls-13" x="32.01" y="0">T</tspan><tspan x="40.22" y="0">imer</tspan></text><text class="cls-4" transform="translate(1103.1 346.6)"><tspan class="cls-14">S</tspan><tspan x="8.29" y="0">ta</tspan><tspan class="cls-5" x="22.06" y="0">r</tspan><tspan class="cls-15" x="28" y="0">t</tspan><tspan x="33.5" y="0">er timer på </tspan><tspan x="0" y="20.31">30 se</tspan><tspan class="cls-16" x="36.14" y="20.31">k</tspan><tspan x="44.15" y="20.31">under</tspan></text><rect class="cls-1" x="1068.17" y="402.35" width="193.66" height="90.41" rx="28.98"/><path d="M1232.86,402.85a28.52,28.52,0,0,1,28.48,28.48v32.45a28.52,28.52,0,0,1-28.48,28.48h-135.7a28.52,28.52,0,0,1-28.49-28.48V431.33a28.52,28.52,0,0,1,28.49-28.48h135.7m0-1h-135.7a29.48,29.48,0,0,0-29.49,29.48v32.45a29.48,29.48,0,0,0,29.49,29.48h135.7a29.48,29.48,0,0,0,29.48-29.48V431.33a29.48,29.48,0,0,0-29.48-29.48Z"/><line class="cls-2" x1="1068.52" y1="426.82" x2="1261.91" y2="426.82"/><text class="cls-4" transform="translate(1124.75 420.44)">uds<tspan class="cls-17" x="25.58" y="0">k</tspan><tspan class="cls-16" x="33.8" y="0">r</tspan><tspan x="39.41" y="0">i</tspan><tspan class="cls-18" x="43.37" y="0">v</tspan><tspan class="cls-19" x="51" y="0">T</tspan><tspan x="59.21" y="0">id</tspan></text><text class="cls-4" transform="translate(1103.69 458.37)">Tje<tspan class="cls-17" x="21.01" y="0">k</tspan><tspan x="29.23" y="0">ker om tid er </tspan><tspan x="0" y="20.31">s</tspan><tspan class="cls-20" x="6.7" y="20.31">t</tspan><tspan x="12.2" y="20.31">ø</tspan><tspan class="cls-8" x="21.5" y="20.31">r</tspan><tspan class="cls-21" x="27.1" y="20.31">r</tspan><tspan x="32.47" y="20.31">e end 0</tspan></text><line class="cls-22" x1="1165.28" y1="174.5" x2="1165.28" y2="189.73"/><line class="cls-22" x1="1166.55" y1="280.3" x2="1166.55" y2="295.53"/><line class="cls-22" x1="1166.55" y1="386.94" x2="1166.55" y2="402.17"/><rect class="cls-1" x="1056.27" y="509.53" width="222.23" height="151.86" rx="28.98"/><path d="M1249.52,510A28.52,28.52,0,0,1,1278,538.51v93.9a28.52,28.52,0,0,1-28.48,28.49H1085.25a28.52,28.52,0,0,1-28.48-28.49v-93.9A28.52,28.52,0,0,1,1085.25,510h164.27m0-1H1085.25a29.48,29.48,0,0,0-29.48,29.48v93.9a29.48,29.48,0,0,0,29.48,29.49h164.27A29.48,29.48,0,0,0,1279,632.41v-93.9A29.48,29.48,0,0,0,1249.52,509Z"/><line class="cls-2" x1="1055.58" y1="539.93" x2="1277.36" y2="539.93"/><text class="cls-23" transform="translate(1115.45 531.47)">sta<tspan class="cls-24" x="20.29" y="0">r</tspan><tspan x="26.19" y="0">t</tspan><tspan class="cls-25" x="31.74" y="0">A</tspan><tspan x="41.96" y="0">nim</tspan><tspan class="cls-26" x="69.21" y="0">a</tspan><tspan class="cls-27" x="77.23" y="0">tion</tspan></text><text class="cls-23" transform="translate(1104.45 571.08)"><tspan class="cls-28">S</tspan><tspan x="8.33" y="0">æt</tspan><tspan class="cls-29" x="26.86" y="0">t</tspan><tspan x="32.31" y="0">er liv til 3</tspan><tspan class="cls-28" x="0" y="20.14">S</tspan><tspan x="8.33" y="20.14">æt</tspan><tspan class="cls-29" x="26.86" y="20.14">t</tspan><tspan x="32.31" y="20.14">er poi</tspan><tspan class="cls-26" x="72.46" y="20.14">n</tspan><tspan x="81.71" y="20.14">t til 0 </tspan><tspan class="cls-28" x="0" y="40.29">S</tspan><tspan x="8.33" y="40.29">æt</tspan><tspan class="cls-29" x="26.86" y="40.29">t</tspan><tspan x="32.31" y="40.29">er tid til 30 </tspan><tspan x="0" y="60.43">se</tspan><tspan class="cls-30" x="15.06" y="60.43">k</tspan><tspan x="23" y="60.43">under </tspan></text><line class="cls-2" x1="1261.5" y1="447.5" x2="1994.5" y2="447.5"/><line class="cls-2" x1="1994.5" y1="1317.5" x2="805.5" y2="1317.5"/><polygon class="cls-2" points="1971.5 832 2016.92 832 1971.5 916.5 2016.92 916.5 1971.5 832"/><text class="cls-31" transform="translate(2019.29 883.06)">30 se<tspan class="cls-32" x="42.7" y="0">k</tspan><tspan x="52.16" y="0">under</tspan></text><rect class="cls-1" x="611.51" y="1272.36" width="193.66" height="90.41" rx="28.98"/><path d="M776.19,1272.86a28.51,28.51,0,0,1,28.48,28.48v32.45a28.51,28.51,0,0,1-28.48,28.48H640.49A28.52,28.52,0,0,1,612,1333.79v-32.45a28.52,28.52,0,0,1,28.48-28.48h135.7m0-1H640.49A29.48,29.48,0,0,0,611,1301.34v32.45a29.48,29.48,0,0,0,29.48,29.48h135.7a29.48,29.48,0,0,0,29.48-29.48v-32.45a29.48,29.48,0,0,0-29.48-29.48Z"/><line class="cls-2" x1="611.86" y1="1296.83" x2="805.25" y2="1296.83"/><text class="cls-4" transform="translate(668.09 1290.45)">check<tspan class="cls-33" x="40.98" y="0">S</tspan><tspan class="cls-6" x="49.28" y="0">t</tspan><tspan class="cls-34" x="54.88" y="0">a</tspan><tspan x="62.97" y="0">tus</tspan></text><text class="cls-4" transform="translate(636.64 1330.61)">check st<tspan class="cls-34" x="56.88" y="0">a</tspan><tspan x="64.97" y="0">tus på poi</tspan><tspan class="cls-34" x="134.45" y="0">n</tspan><tspan class="cls-6" x="143.78" y="0">t</tspan></text><line class="cls-2" x1="486.52" y1="1317.39" x2="611.05" y2="1317.39"/><polygon class="cls-3" points="486.84 1317.75 486.84 1326.51 481.92 1322.13 477 1317.76 481.92 1313.38 486.84 1309 486.84 1317.75"/><text class="cls-31" transform="translate(499.74 1305.92)">[poi<tspan class="cls-35" x="32.72" y="0">n</tspan><tspan x="43.74" y="0">t&gt;=15]</tspan></text><rect class="cls-1" x="228.77" y="1262.11" width="238.35" height="111.39" rx="28.98"/><path d="M438.14,1262.61a28.52,28.52,0,0,1,28.48,28.48v53.43A28.52,28.52,0,0,1,438.14,1373H257.76a28.52,28.52,0,0,1-28.49-28.48v-53.43a28.52,28.52,0,0,1,28.49-28.48H438.14m0-1H257.76a29.48,29.48,0,0,0-29.49,29.48v53.43A29.48,29.48,0,0,0,257.76,1374H438.14a29.48,29.48,0,0,0,29.48-29.48v-53.43a29.48,29.48,0,0,0-29.48-29.48Z"/><line class="cls-2" x1="229.32" y1="1292.31" x2="467.1" y2="1292.31"/><text class="cls-36" transform="translate(334.84 1282.64)">win</text><text class="cls-36" transform="translate(245.26 1321.06)"><tspan class="cls-37">D</tspan><tspan x="12.81" y="0">u har vundet spillet</tspan><tspan x="0" y="22.98">vis le</tspan><tspan class="cls-38" x="39.44" y="22.98">v</tspan><tspan x="48.46" y="22.98">el_</tspan><tspan class="cls-39" x="72.14" y="22.98">c</tspan><tspan class="cls-40" x="80.6" y="22.98">omple</tspan><tspan class="cls-41" x="132.09" y="22.98">t</tspan><tspan class="cls-42" x="138.31" y="22.98">e s</tspan><tspan class="cls-43" x="159.54" y="22.98">k</tspan><tspan x="168.86" y="22.98">æ</tspan><tspan class="cls-44" x="183.66" y="22.98">r</tspan><tspan x="190" y="22.98">m</tspan></text><line class="cls-22" x1="228" y1="1321" x2="123.5" y2="1243.5"/><line class="cls-2" x1="123.78" y1="1314.85" x2="123.42" y2="1243.5"/><polygon class="cls-3" points="124.14 1314.3 133 1314.25 128.61 1322.63 124.22 1331 119.75 1322.68 115.28 1314.36 124.14 1314.3"/><circle class="cls-22" cx="123.5" cy="1348.5" r="9"/><circle class="cls-2" cx="123.5" cy="1348.5" r="15"/><rect class="cls-1" x="228.51" y="1119.89" width="238.35" height="111.39" rx="28.98"/><path d="M437.87,1120.39a28.51,28.51,0,0,1,28.48,28.48v53.43a28.51,28.51,0,0,1-28.48,28.48H257.49A28.51,28.51,0,0,1,229,1202.3v-53.43a28.51,28.51,0,0,1,28.48-28.48H437.87m0-1H257.49A29.48,29.48,0,0,0,228,1148.87v53.43a29.48,29.48,0,0,0,29.48,29.48H437.87a29.48,29.48,0,0,0,29.48-29.48v-53.43a29.48,29.48,0,0,0-29.48-29.48Z"/><line class="cls-2" x1="229.05" y1="1150.09" x2="466.83" y2="1150.09"/><text class="cls-36" transform="translate(309.57 1140.42)">game<tspan class="cls-45" x="45.49" y="0">O</tspan><tspan class="cls-38" x="58.95" y="0">v</tspan><tspan class="cls-42" x="67.97" y="0">er</tspan></text><text class="cls-36" transform="translate(244.99 1178.84)"><tspan class="cls-37">D</tspan><tspan x="12.81" y="0">u har tabt spillet</tspan><tspan x="0" y="22.98">vis game_</tspan><tspan class="cls-46" x="80.39" y="22.98">o</tspan><tspan class="cls-38" x="90.77" y="22.98">v</tspan><tspan x="99.79" y="22.98">er s</tspan><tspan class="cls-43" x="127.28" y="22.98">k</tspan><tspan x="136.6" y="22.98">æ</tspan><tspan class="cls-47" x="151.4" y="22.98">r</tspan><tspan x="157.74" y="22.98">m</tspan></text><text class="cls-31" transform="translate(506.95 1167.6)">[poi<tspan class="cls-35" x="32.72" y="0">n</tspan><tspan x="43.74" y="0">t&lt;15]</tspan></text><line class="cls-2" x1="611" y1="1317" x2="611" y2="1179"/><line class="cls-2" x1="486.49" y1="1179.18" x2="611.02" y2="1179.18"/><polygon class="cls-3" points="486.81 1179.54 486.81 1188.3 481.89 1183.92 476.97 1179.55 481.89 1175.17 486.81 1170.79 486.81 1179.54"/><line class="cls-2" x1="228" y1="1179" x2="123.5" y2="1243.5"/><line class="cls-2" x1="1994.5" y1="447.5" x2="1994.5" y2="795.5"/><line class="cls-2" x1="1994.5" y1="1317.5" x2="1994.5" y2="958.5"/><line class="cls-2" x1="1165.5" y1="662" x2="1165.5" y2="763.5"/><line class="cls-2" x1="1278.5" y1="584.5" x2="1499.5" y2="584.5"/><text class="cls-31" transform="translate(1347.57 571.28)"><tspan class="cls-48">K</tspan><tspan x="11.04" y="0">lik på fisk</tspan></text><text class="cls-31" transform="translate(1179.5 705.33)"><tspan class="cls-48">K</tspan><tspan x="11.04" y="0">lik på s</tspan><tspan class="cls-49" x="67.24" y="0">k</tspan><tspan class="cls-50" x="76.96" y="0">r</tspan><tspan x="83.4" y="0">ald</tspan></text><line class="cls-22" x1="1162.99" y1="494.01" x2="1162.99" y2="509.25"/><rect class="cls-1" x="1494.71" y="509.57" width="222.23" height="151.86" rx="28.98"/><path d="M1688,510.07a28.52,28.52,0,0,1,28.48,28.49v93.89A28.52,28.52,0,0,1,1688,660.94H1523.69a28.52,28.52,0,0,1-28.48-28.49V538.56a28.52,28.52,0,0,1,28.48-28.49H1688m0-1H1523.69a29.48,29.48,0,0,0-29.48,29.49v93.89a29.48,29.48,0,0,0,29.48,29.49H1688a29.48,29.48,0,0,0,29.48-29.49V538.56A29.48,29.48,0,0,0,1688,509.07Z"/><line class="cls-2" x1="1494.02" y1="539.97" x2="1715.8" y2="539.97"/><text class="cls-23" transform="translate(1571.89 531.51)">fiskClick</text><text class="cls-23" transform="translate(1532.89 566.12)"><tspan class="cls-51">F</tspan><tspan class="cls-27" x="7.42" y="0">astf</tspan><tspan class="cls-52" x="32.61" y="0">r</tspan><tspan class="cls-53" x="38.52" y="0">y</tspan><tspan x="46.33" y="0">s fisk (</tspan><tspan class="cls-53" x="88.16" y="0">c</tspan><tspan x="95.58" y="0">o</tspan><tspan class="cls-54" x="104.79" y="0">n</tspan><tspan class="cls-27" x="114.04" y="0">tainer)</tspan><tspan class="cls-25" x="0" y="20.14">S</tspan><tspan x="8.23" y="20.14">ta</tspan><tspan class="cls-24" x="21.87" y="20.14">r</tspan><tspan x="27.76" y="20.14">t fade anim</tspan><tspan class="cls-26" x="106.64" y="20.14">a</tspan><tspan x="114.66" y="20.14">tion på</tspan><tspan x="0" y="40.29">fisk (sp</tspan><tspan class="cls-55" x="47.82" y="40.29">r</tspan><tspan x="53.38" y="40.29">i</tspan><tspan class="cls-29" x="57.31" y="40.29">t</tspan><tspan x="62.76" y="40.29">e)</tspan><tspan class="cls-56" x="0" y="60.43">M</tspan><tspan x="13.7" y="60.43">ist et liv</tspan><tspan x="0" y="80.57">Spil l</tspan><tspan class="cls-57" x="33.23" y="80.57">y</tspan><tspan class="cls-27" x="40.97" y="80.57">d </tspan><tspan class="cls-58" x="54" y="80.57">f</tspan><tspan x="58.68" y="80.57">or mis</tspan><tspan class="cls-53" x="101.52" y="80.57">t</tspan><tspan class="cls-27" x="106.97" y="80.57">et liv </tspan></text><rect class="cls-1" x="1058.97" y="723.95" width="222.23" height="151.86" rx="28.98"/><path d="M1252.22,724.45a28.51,28.51,0,0,1,28.49,28.48v93.9a28.52,28.52,0,0,1-28.49,28.48H1088a28.52,28.52,0,0,1-28.49-28.48v-93.9A28.51,28.51,0,0,1,1088,724.45h164.26m0-1H1088a29.48,29.48,0,0,0-29.49,29.48v93.9A29.48,29.48,0,0,0,1088,876.31h164.26a29.48,29.48,0,0,0,29.49-29.48v-93.9a29.48,29.48,0,0,0-29.49-29.48Z"/><line class="cls-2" x1="1058.29" y1="754.34" x2="1280.06" y2="754.34"/><text class="cls-23" transform="translate(1118.16 745.88)">s<tspan class="cls-59" x="6.65" y="0">k</tspan><tspan class="cls-60" x="14.8" y="0">r</tspan><tspan x="20.21" y="0">aldClick</tspan></text><text class="cls-23" transform="translate(1087.16 780.49)"><tspan class="cls-51">F</tspan><tspan class="cls-27" x="7.42" y="0">astf</tspan><tspan class="cls-52" x="32.61" y="0">r</tspan><tspan class="cls-53" x="38.52" y="0">y</tspan><tspan x="46.33" y="0">s s</tspan><tspan class="cls-59" x="63.18" y="0">k</tspan><tspan class="cls-60" x="71.34" y="0">r</tspan><tspan class="cls-27" x="76.74" y="0">ald(</tspan><tspan class="cls-29" x="103.03" y="0">c</tspan><tspan x="110.45" y="0">o</tspan><tspan class="cls-54" x="119.66" y="0">n</tspan><tspan x="128.91" y="0">tainer)</tspan><tspan class="cls-25" x="0" y="20.14">S</tspan><tspan x="8.23" y="20.14">ta</tspan><tspan class="cls-24" x="21.87" y="20.14">r</tspan><tspan x="27.76" y="20.14">t fade anim</tspan><tspan class="cls-26" x="106.64" y="20.14">a</tspan><tspan x="114.66" y="20.14">tion på</tspan><tspan x="0" y="40.29">s</tspan><tspan class="cls-59" x="6.65" y="40.29">k</tspan><tspan class="cls-60" x="14.8" y="40.29">r</tspan><tspan x="20.21" y="40.29">ald (sp</tspan><tspan class="cls-30" x="66.25" y="40.29">r</tspan><tspan x="71.81" y="40.29">i</tspan><tspan class="cls-53" x="75.74" y="40.29">t</tspan><tspan x="81.19" y="40.29">e)</tspan><tspan class="cls-51"><tspan x="0" y="60.43">F</tspan><tspan class="cls-27" x="7.42" y="60.43">å et poi</tspan><tspan class="cls-54" x="59.29" y="60.43">n</tspan><tspan class="cls-27" x="68.54" y="60.43">t</tspan></tspan><tspan x="0" y="80.57">Spil l</tspan><tspan class="cls-57" x="33.23" y="80.57">y</tspan><tspan class="cls-27" x="40.97" y="80.57">d </tspan><tspan class="cls-58" x="54" y="80.57">f</tspan><tspan x="58.68" y="80.57">or bonus poi</tspan><tspan class="cls-26" x="147.17" y="80.57">n</tspan><tspan x="156.42" y="80.57">t </tspan></text><rect class="cls-1" x="335.37" y="480.62" width="243.13" height="100.88" rx="28.98"/><path d="M549.52,481.12A28.52,28.52,0,0,1,578,509.6v42.92A28.52,28.52,0,0,1,549.52,581H364.35a28.52,28.52,0,0,1-28.48-28.48V509.6a28.52,28.52,0,0,1,28.48-28.48H549.52m0-1H364.35a29.48,29.48,0,0,0-29.48,29.48v42.92A29.48,29.48,0,0,0,364.35,582H549.52A29.48,29.48,0,0,0,579,552.52V509.6a29.48,29.48,0,0,0-29.48-29.48Z"/><line class="cls-2" x1="335.93" y1="507.95" x2="578.47" y2="507.95"/><text class="cls-4" transform="translate(423.95 498.71)"><tspan class="cls-10">r</tspan><tspan x="5.37" y="0">eset</tspan><tspan class="cls-61" x="34.63" y="0">F</tspan><tspan x="42.44" y="0">isk</tspan></text><text class="cls-4" transform="translate(355.88 540.64)">Fje<tspan class="cls-16" x="20.84" y="0">r</tspan><tspan class="cls-62" x="26.44" y="0">n f</tspan><tspan class="cls-63" x="44.37" y="0">r</tspan><tspan class="cls-20" x="50.32" y="0">y</tspan><tspan x="58.2" y="0">s og hide anim</tspan><tspan class="cls-34" x="161.43" y="0">a</tspan><tspan x="169.52" y="0">tioner </tspan><tspan class="cls-13" x="0" y="20.31">T</tspan><tspan x="8.21" y="20.31">il</tspan><tspan class="cls-64" x="16.17" y="20.31">f</tspan><tspan x="20.89" y="20.31" xml:space="preserve">øjer  haj anim</tspan><tspan class="cls-34" x="116.37" y="20.31">a</tspan><tspan class="cls-6" x="124.47" y="20.31">tion</tspan></text><rect class="cls-1" x="611.38" y="594.38" width="243.13" height="100.88" rx="28.98"/><path d="M825.53,594.88A28.52,28.52,0,0,1,854,623.36v42.92a28.52,28.52,0,0,1-28.48,28.48H640.36a28.51,28.51,0,0,1-28.48-28.48V623.36a28.51,28.51,0,0,1,28.48-28.48H825.53m0-1H640.36a29.48,29.48,0,0,0-29.48,29.48v42.92a29.48,29.48,0,0,0,29.48,29.48H825.53A29.48,29.48,0,0,0,855,666.28V623.36a29.48,29.48,0,0,0-29.48-29.48Z"/><line class="cls-2" x1="611.94" y1="621.71" x2="854.48" y2="621.71"/><text class="cls-4" transform="translate(699.96 612.47)"><tspan class="cls-10">r</tspan><tspan x="5.37" y="0">esetS</tspan><tspan class="cls-17" x="42.98" y="0">k</tspan><tspan class="cls-65" x="51.2" y="0">r</tspan><tspan class="cls-62" x="56.66" y="0">ald</tspan></text><text class="cls-4" transform="translate(631.89 654.4)">Fje<tspan class="cls-16" x="20.84" y="0">r</tspan><tspan class="cls-62" x="26.44" y="0">n f</tspan><tspan class="cls-63" x="44.37" y="0">r</tspan><tspan class="cls-20" x="50.32" y="0">y</tspan><tspan x="58.2" y="0">s og hide anim</tspan><tspan class="cls-34" x="161.43" y="0">a</tspan><tspan x="169.52" y="0">tioner </tspan><tspan class="cls-13" x="0" y="20.31">T</tspan><tspan x="8.21" y="20.31">il</tspan><tspan class="cls-64" x="16.17" y="20.31">f</tspan><tspan x="20.89" y="20.31" xml:space="preserve">øjer  pose anim</tspan><tspan class="cls-34" x="128.82" y="20.31">a</tspan><tspan class="cls-6" x="136.91" y="20.31">tion</tspan></text><line class="cls-2" x1="1606" y1="662" x2="1606" y2="1037"/><line class="cls-2" x1="1605.5" y1="1036.5" x2="486.5" y2="1138.5"/><polygon class="cls-3" points="486.9 1138.66 486.9 1147.41 481.98 1143.04 477.06 1138.67 481.98 1134.29 486.9 1129.91 486.9 1138.66"/><text class="cls-31" transform="translate(972.21 1075.04) rotate(-4.26)">[liv&gt;=0]</text><line class="cls-2" x1="1571.5" y1="662" x2="1571.5" y2="979"/><line class="cls-2" x1="1571" y1="978.5" x2="456.5" y2="978.5"/><text class="cls-31" transform="translate(916.57 965.8)">[poi<tspan class="cls-35" x="32.72" y="0">n</tspan><tspan x="43.74" y="0">t &gt;0]</tspan></text><line class="cls-2" x1="457" y1="979" x2="457.5" y2="603.5"/><polygon class="cls-3" points="457.56 603.88 448.81 603.88 453.19 598.96 457.56 594.04 461.94 598.97 466.32 603.89 457.56 603.88"/><line class="cls-2" x1="1058.5" y1="800.5" x2="732.5" y2="799.5"/><line class="cls-2" x1="732.5" y1="799.5" x2="732.5" y2="722.5"/><polygon class="cls-3" points="732.45 722.79 723.7 722.79 728.07 717.87 732.45 712.95 736.83 717.87 741.21 722.79 732.45 722.79"/><line class="cls-2" x1="578.5" y1="531.5" x2="1036.5" y2="584.5"/><line class="cls-2" x1="854.5" y1="649.5" x2="1036.5" y2="584.5"/><polygon class="cls-3" points="1036.02 585.16 1036.03 576.41 1040.94 580.79 1045.86 585.17 1040.93 589.54 1036 593.91 1036.02 585.16"/></svg>
